<svg xmlns="http://www.w3.org/2000/svg" viewBox="0 0 67 66" width="67" height="66">
	<style>
		tspan { white-space:pre }
		.shp0 { fill: #1275b9 } 
		.shp1 { fill: #ffffff } 
	</style>
	<path id="Shape 189" class="shp0" d="M33.76 2C51.41 2 65.71 16.1 65.71 33.5C65.71 50.9 51.41 65 33.76 65C16.12 65 1.82 50.9 1.82 33.5C1.82 16.1 16.12 2 33.76 2Z" />
	<path id="Settings" class="shp1" d="M34.59 40.3C31.28 40.3 28.58 37.59 28.58 34.27C28.58 30.95 31.28 28.25 34.59 28.25C37.91 28.25 40.6 30.95 40.6 34.27C40.6 37.59 37.91 40.3 34.59 40.3ZM34.59 30.26C32.38 30.26 30.58 32.06 30.58 34.27C30.58 36.49 32.38 38.29 34.59 38.29C36.8 38.29 38.6 36.49 38.6 34.27C38.6 32.06 36.8 30.26 34.59 30.26ZM31.92 46.29C31.85 46.29 31.77 46.28 31.7 46.26C29.88 45.85 28.14 45.02 26.67 43.85C26.47 43.68 26.33 43.44 26.3 43.17C26.27 42.91 26.35 42.65 26.51 42.44L26.91 41.94C26.21 41.28 25.6 40.51 25.1 39.68L24.53 39.96C24.04 40.2 23.44 39.99 23.19 39.49C22.37 37.79 21.95 35.96 21.94 34.05C21.94 33.79 22.05 33.53 22.24 33.34C22.42 33.15 22.68 33.05 22.94 33.05L23.57 33.05C23.65 32.08 23.87 31.13 24.21 30.22L23.64 29.95C23.4 29.83 23.22 29.63 23.13 29.37C23.04 29.12 23.06 28.85 23.17 28.61C23.98 26.92 25.18 25.41 26.63 24.24C27.07 23.9 27.7 23.96 28.04 24.4L28.44 24.89C29.24 24.35 30.12 23.93 31.04 23.62L30.9 23.01C30.84 22.75 30.88 22.47 31.02 22.25C31.17 22.02 31.39 21.86 31.65 21.8C33.46 21.39 35.4 21.38 37.22 21.79C37.76 21.91 38.1 22.44 37.97 22.98L37.84 23.6C38.76 23.9 39.64 24.32 40.45 24.85L40.84 24.36C41 24.15 41.25 24.01 41.51 23.98C41.77 23.95 42.04 24.03 42.25 24.19C43.71 25.36 44.92 26.86 45.74 28.54C45.85 28.78 45.87 29.05 45.78 29.31C45.7 29.56 45.51 29.76 45.28 29.88L44.71 30.16C45.05 31.08 45.28 32.02 45.37 32.99L45.98 32.98C46.23 32.97 46.51 33.09 46.7 33.27C46.89 33.46 47 33.72 47 33.99C47 35.93 46.58 37.77 45.76 39.47C45.64 39.71 45.44 39.9 45.19 39.98C44.93 40.07 44.66 40.06 44.42 39.94L43.85 39.66C43.35 40.49 42.74 41.26 42.05 41.93L42.44 42.42C42.79 42.85 42.72 43.49 42.29 43.83C40.82 45 39.09 45.84 37.27 46.26C36.72 46.39 36.19 46.04 36.07 45.5L35.93 44.89C34.95 45.03 34.01 45.03 33.04 44.89L32.9 45.51C32.84 45.77 32.68 45.99 32.46 46.13C32.29 46.24 32.11 46.29 31.92 46.29ZM28.74 42.86C29.49 43.36 30.32 43.75 31.17 44.04L31.29 43.52C31.35 43.26 31.51 43.03 31.73 42.89C31.96 42.75 32.23 42.7 32.49 42.76C33.83 43.06 35.12 43.06 36.47 42.75C36.72 42.69 37 42.74 37.22 42.88C37.45 43.02 37.61 43.25 37.67 43.51L37.79 44.03C38.64 43.75 39.46 43.35 40.22 42.85L39.89 42.43C39.54 42 39.61 41.37 40.05 41.02C41.08 40.19 41.94 39.12 42.52 37.91C42.76 37.41 43.36 37.2 43.86 37.44L44.35 37.68C44.66 36.81 44.87 35.92 44.95 35L44.43 35.01C44.16 34.98 43.9 34.91 43.71 34.72C43.52 34.53 43.41 34.28 43.41 34.01C43.41 32.66 43.1 31.35 42.5 30.12C42.26 29.62 42.47 29.02 42.97 28.77L43.45 28.54C42.98 27.77 42.41 27.06 41.76 26.43L41.42 26.85C41.08 27.28 40.45 27.36 40.02 27.01C38.96 26.17 37.75 25.59 36.43 25.29C35.89 25.17 35.55 24.64 35.67 24.1L35.79 23.57C34.9 23.46 33.98 23.47 33.09 23.58L33.21 24.11C33.27 24.36 33.22 24.64 33.08 24.86C32.94 25.09 32.71 25.25 32.46 25.31C31.15 25.61 29.92 26.21 28.88 27.04C28.45 27.39 27.82 27.32 27.47 26.89L27.14 26.47C26.49 27.1 25.92 27.82 25.46 28.59L25.94 28.83C26.44 29.07 26.65 29.67 26.41 30.17C25.82 31.39 25.53 32.69 25.53 34.03C25.53 34.58 25.08 35.05 24.53 35.05L24 35.05C24.08 35.96 24.29 36.84 24.6 37.69L25.09 37.46C25.33 37.34 25.6 37.33 25.85 37.41C26.1 37.5 26.31 37.68 26.43 37.92C27.01 39.13 27.87 40.21 28.91 41.04C29.12 41.2 29.25 41.44 29.28 41.71C29.31 41.97 29.23 42.24 29.07 42.45L28.74 42.86Z" />
</svg>