<svg xmlns="http://www.w3.org/2000/svg" viewBox="0 0 69 68" width="69" height="68">
	<style>
		tspan { white-space:pre }
		.shp0 { fill: #000000;stroke: #1275b9;paint-order:stroke fill markers;stroke-width: 2 } 
		.shp1 { fill: #1275b9 } 
	</style>
	<path id="Shape 189" class="shp0" d="M34.76 3C52.41 3 66.71 17.1 66.71 34.5C66.71 51.9 52.41 66 34.76 66C17.12 66 2.82 51.9 2.82 34.5C2.82 17.1 17.12 3 34.76 3Z" />
	<path id="Tablet" class="shp1" d="M41.27 49.98L28.74 49.98C26.1 49.98 23.96 47.75 23.96 45.02L23.96 24.94C23.96 22.21 26.1 19.99 28.74 19.99L41.27 19.99C43.9 19.99 46.04 22.21 46.04 24.94L46.04 45.02C46.04 47.75 43.9 49.98 41.27 49.98ZM28.74 22C27.17 22 25.9 23.32 25.9 24.94L25.9 45.02C25.9 46.64 27.17 47.97 28.74 47.97L41.27 47.97C42.83 47.97 44.1 46.64 44.1 45.02L44.1 24.94C44.1 23.32 42.83 22 41.27 22L28.74 22ZM35 46.82C34.47 46.82 34.03 46.37 34.03 45.81C34.03 45.26 34.47 44.81 35 44.81C35.53 44.81 35.97 45.26 35.97 45.81C35.97 46.37 35.53 46.82 35 46.82ZM35.97 25.43L34.03 25.43C33.5 25.43 33.07 24.98 33.07 24.43C33.07 23.87 33.5 23.42 34.03 23.42L35.97 23.42C36.5 23.42 36.94 23.87 36.94 24.43C36.94 24.98 36.5 25.43 35.97 25.43Z" />
</svg>