<svg xmlns="http://www.w3.org/2000/svg" viewBox="0 0 67 66" width="67" height="66">
	<style>
		tspan { white-space:pre }
		.shp0 { fill: #1275b9 } 
		.shp1 { fill: #ffffff } 
	</style>
	<path id="Shape 189" class="shp0" d="M33.76 2C51.41 2 65.71 16.1 65.71 33.5C65.71 50.9 51.41 65 33.76 65C16.12 65 1.82 50.9 1.82 33.5C1.82 16.1 16.12 2 33.76 2Z" />
	<path id="Dashboard" class="shp1" d="M37.7 30.65C37.7 30.65 36.72 36.36 35.68 37.59C34.63 38.83 32.78 38.98 31.55 37.93C30.32 36.87 30.18 35.01 31.22 33.78C32.27 32.54 37.7 30.65 37.7 30.65ZM43.9 43.16L23.8 43.16C23.49 43.16 23.2 43.02 23.01 42.77C21.31 40.55 20.34 37.56 20.34 34.59C20.34 27.04 26.4 20.9 33.85 20.9C41.31 20.9 47.37 27.03 47.37 34.56C47.37 37.56 46.39 40.55 44.69 42.77C44.5 43.02 44.21 43.16 43.9 43.16ZM24.31 41.15L43.39 41.15C44.65 39.32 45.37 36.95 45.37 34.56C45.37 28.14 40.2 22.91 33.85 22.91C27.5 22.91 22.34 28.15 22.34 34.59C22.34 36.96 23.05 39.32 24.31 41.15ZM25.92 34.8C25.36 34.8 24.91 34.35 24.91 33.79C24.91 28.78 28.92 24.71 33.85 24.71C38.78 24.71 42.79 28.77 42.79 33.76C42.79 34.32 42.34 34.77 41.79 34.77C41.24 34.77 40.79 34.32 40.79 33.76C40.79 29.88 37.68 26.72 33.85 26.72C30.03 26.72 26.92 29.9 26.92 33.79C26.92 34.35 26.47 34.8 25.92 34.8Z" />
</svg>